<svg width="16" height="16" viewBox="0 0 16 16" fill="none" xmlns="http://www.w3.org/2000/svg">
<path d="M8.94799 0.685547C6.6654 0.685547 4.64517 1.90751 3.42233 3.77224C3.67541 3.94929 3.92209 4.19209 4.16069 4.50421C5.07296 3.04142 6.54801 2.01512 8.25467 1.7945L8.94789 3.05246L9.64111 1.79447C12.2645 2.13352 14.3498 4.36959 14.6661 7.18282L13.4928 7.92631L14.6661 8.66983C14.4547 10.5507 13.4502 12.17 12.0252 13.1405C12.1159 13.3624 12.1671 13.5893 12.1761 13.8232C12.1828 13.9941 12.1663 14.1556 12.1333 14.309C14.2545 13.0867 15.7003 10.6846 15.7003 7.92644C15.7003 3.93371 12.6713 0.685547 8.94799 0.685547ZM10.6711 12.6106C9.11453 11.2691 8.67926 11.9285 7.973 12.6858C7.47992 13.2147 6.23214 12.1102 5.15474 10.9548C4.07727 9.7992 3.04746 8.46134 3.54049 7.9325C4.2468 7.1752 4.86155 6.70817 3.61024 5.03942C2.35934 3.37006 1.52546 4.65168 0.841305 5.3854C0.0514475 6.23212 0.799683 9.38751 3.70779 12.5065C6.6163 15.6252 9.55873 16.427 10.3481 15.5806C11.0322 14.8469 12.2277 13.9527 10.6711 12.6106ZM5.93044 9.05961C5.93044 7.57587 7.55026 7.31155 7.55026 6.73255C7.55026 6.4516 7.34054 6.33365 7.14657 6.33365C6.79009 6.33365 6.59109 6.76069 6.59109 6.76069L5.90966 6.27174C5.90966 6.27174 6.25564 5.40613 7.23053 5.40613C7.84375 5.40613 8.50941 5.78278 8.50941 6.63709C8.50941 7.89057 6.99981 8.13236 6.97357 8.64946H8.56715V9.49252H5.97245C5.94618 9.33517 5.93044 9.19474 5.93044 9.05961ZM8.95034 7.92437L10.3972 5.47347H11.5189V7.7051H11.9643V8.52002H11.5189V9.49257H10.6119V8.52002H8.95036V7.92437H8.95034ZM10.6119 7.70508V6.80573C10.6119 6.58646 10.6434 6.35593 10.6434 6.35593H10.6329C10.6329 6.35593 10.5544 6.60335 10.4494 6.77198L9.88349 7.69387V7.70513L10.6119 7.70508Z" fill="white"/>
</svg>
