<svg width="271" height="271" viewBox="0 0 271 271" fill="none" xmlns="http://www.w3.org/2000/svg">
<g clip-path="url(#clip0_263_1062)">
<path d="M135.5 0C147.938 0 159.936 1.58789 171.492 4.76367C183.049 7.93945 193.811 12.5267 203.779 18.5254C213.748 24.5241 222.878 31.5814 231.17 39.6973C239.463 47.8132 246.564 56.9435 252.475 67.0884C258.385 77.2332 262.928 88.0397 266.104 99.5078C269.28 110.976 270.912 122.973 271 135.5C271 147.938 269.412 159.936 266.236 171.492C263.061 183.049 258.473 193.811 252.475 203.779C246.476 213.748 239.419 222.878 231.303 231.17C223.187 239.463 214.056 246.564 203.912 252.475C193.767 258.385 182.96 262.928 171.492 266.104C160.024 269.28 148.027 270.912 135.5 271C123.062 271 111.064 269.412 99.5078 266.236C87.9515 263.061 77.1891 258.473 67.2207 252.475C57.2523 246.476 48.1219 239.419 39.8296 231.303C31.5373 223.187 24.4359 214.056 18.5254 203.912C12.6149 193.767 8.07178 182.96 4.896 171.492C1.72021 160.024 0.0882161 148.027 0 135.5C0 123.062 1.58789 111.064 4.76367 99.5078C7.93945 87.9515 12.5267 77.1891 18.5254 67.2207C24.5241 57.2523 31.5814 48.1219 39.6973 39.8296C47.8132 31.5373 56.9435 24.4359 67.0884 18.5254C77.2332 12.6149 88.0397 8.07178 99.5078 4.896C110.976 1.72021 122.973 0.0882161 135.5 0ZM215.292 90.6421L197.295 72.646L110.094 159.848L73.7046 123.458L55.7085 141.455L110.094 195.84L215.292 90.6421Z" fill="url(#paint0_linear_263_1062)"/>
</g>
<defs>
<linearGradient id="paint0_linear_263_1062" x1="-0.00706617" y1="135.488" x2="271.007" y2="135.488" gradientUnits="userSpaceOnUse">
<stop stop-color="#4EF0F8"/>
<stop offset="0.41" stop-color="#44C8F8"/>
<stop offset="1" stop-color="#388CFC"/>
</linearGradient>
<clipPath id="clip0_263_1062">
<rect width="271" height="271" fill="white"/>
</clipPath>
</defs>
</svg>
