<svg width="268" height="76" viewBox="0 0 268 76" fill="none" xmlns="http://www.w3.org/2000/svg">
<path fill-rule="evenodd" clip-rule="evenodd" d="M24.5684 7.20898L24.6546 7.21186C29.466 7.37222 30.9529 12.2263 29.2424 15.4033L36.1874 27.583L31.519 30.3126L24.5639 18.1153L24.5634 18.1153L24.4821 18.1127C17.4487 17.8912 17.4487 7.43319 24.4821 7.2117L24.5684 7.20898Z" fill="url(#paint0_linear_194_1946)"/>
<path fill-rule="evenodd" clip-rule="evenodd" d="M41.1885 8.35531C37.4811 2.25999 46.1375 -3.33936 50.1225 2.39272L50.1713 2.46292L50.2156 2.53609C52.7075 6.64707 49.5589 10.5687 46.0245 10.8791L36.4402 30.2375L31.6211 27.7911L41.219 8.40529L41.1885 8.35531Z" fill="url(#paint1_linear_194_1946)"/>
<path fill-rule="evenodd" clip-rule="evenodd" d="M8.08624 32.9402V57.5153H58.0946V50.877H66.1808V57.8805C66.1808 62.5206 62.2458 65.7035 58.1274 65.7035H8.05345C3.93504 65.7035 0 62.5205 0 57.8805V32.575C0 27.9349 3.93504 24.752 8.05345 24.752H58.1274C62.2458 24.752 66.1808 27.9349 66.1808 32.575V39.568H58.0946V32.9402H8.08624Z" fill="url(#paint2_linear_194_1946)"/>
<path d="M100.27 36.7765L96.7772 40.149C94.3993 37.6048 91.7246 36.3327 88.7566 36.3327C86.251 36.3327 84.1388 37.1994 82.4201 38.9363C80.7049 40.6732 79.8455 42.812 79.8455 45.3561C79.8455 47.128 80.2251 48.7006 80.9879 50.0776C81.7471 51.451 82.8239 52.5309 84.2148 53.3137C85.6056 54.0965 87.1518 54.4879 88.8498 54.4879C90.2993 54.4879 91.6246 54.2154 92.8256 53.6667C94.0266 53.118 95.345 52.122 96.7842 50.6752L100.17 54.2538C98.2302 56.1689 96.3976 57.4969 94.6754 58.2378C92.9498 58.9787 90.9826 59.3492 88.7704 59.3492C84.691 59.3492 81.3502 58.0386 78.7515 55.421C76.1527 52.8 74.8516 49.445 74.8516 45.3492C74.8516 42.7001 75.4417 40.3447 76.6255 38.2862C77.8093 36.2278 79.5038 34.5713 81.7092 33.3167C83.9145 32.0656 86.2924 31.4365 88.836 31.4365C90.9999 31.4365 93.0844 31.8978 95.0896 32.8239C97.0948 33.7501 98.8204 35.0676 100.273 36.773L100.27 36.7765Z" fill="white"/>
<path d="M107.83 30.9326C108.683 30.9326 109.414 31.2471 110.029 31.8727C110.639 32.4983 110.943 33.2566 110.943 34.1478C110.943 35.039 110.639 35.7764 110.035 36.3984C109.432 37.0205 108.707 37.328 107.865 37.328C107.023 37.328 106.26 37.0135 105.649 36.3809C105.038 35.7484 104.734 34.9795 104.734 34.0779C104.734 33.1763 105.038 32.4703 105.642 31.8552C106.246 31.2402 106.974 30.9326 107.83 30.9326ZM105.394 39.0265H110.263V58.6845H105.394V39.0265Z" fill="white"/>
<path d="M117.108 31.7822H121.978V39.0269H124.866V43.273H121.978V58.6849H117.108V43.273H114.609V39.0269H117.108V31.7822Z" fill="white"/>
<path d="M127.148 39.0273H132.125L137.167 51.3603L142.73 39.0273H147.721L135.562 65.8741H130.53L134.523 57.2176L127.145 39.0273H127.148Z" fill="white"/>
<path d="M166.632 35.7205L162.932 39.0266C161.635 37.1953 160.309 36.2797 158.963 36.2797C158.308 36.2797 157.773 36.4579 157.355 36.8109C156.938 37.1674 156.73 37.5658 156.73 38.0131C156.73 38.4604 156.879 38.8798 157.176 39.2782C157.579 39.8094 158.801 40.9452 160.841 42.6926C162.746 44.3072 163.902 45.3241 164.309 45.747C165.321 46.7814 166.038 47.774 166.463 48.7175C166.884 49.6646 167.098 50.6956 167.098 51.8174C167.098 53.9981 166.353 55.7979 164.865 57.2203C163.378 58.6427 161.435 59.3521 159.043 59.3521C157.172 59.3521 155.547 58.8873 154.159 57.9612C152.772 57.0351 151.585 55.5777 150.598 53.5892L154.798 51.0241C156.061 53.3726 157.514 54.5468 159.157 54.5468C160.013 54.5468 160.734 54.2952 161.321 53.7884C161.904 53.2817 162.197 52.6981 162.197 52.0376C162.197 51.4365 161.976 50.8319 161.535 50.2308C161.093 49.6297 160.123 48.7071 158.622 47.4664C155.761 45.1075 153.914 43.2832 153.083 42.0006C152.251 40.718 151.83 39.439 151.83 38.1599C151.83 36.3181 152.523 34.735 153.911 33.4175C155.298 32.1 157.01 31.4395 159.046 31.4395C160.358 31.4395 161.604 31.747 162.787 32.3621C163.971 32.9771 165.255 34.0955 166.636 35.724L166.632 35.7205Z" fill="white"/>
<path d="M187.478 39.0267H192.347V65.8734H187.478V56.6053C186.529 57.5209 185.573 58.1815 184.617 58.5834C183.661 58.9853 182.625 59.1879 181.507 59.1879C179.002 59.1879 176.831 58.2024 175.002 56.2349C173.172 54.2673 172.258 51.8175 172.258 48.8924C172.258 45.9673 173.141 43.3707 174.912 41.4311C176.682 39.4915 178.832 38.5234 181.362 38.5234C182.525 38.5234 183.619 38.7471 184.641 39.1909C185.662 39.6348 186.608 40.3058 187.474 41.1969V39.0302L187.478 39.0267ZM182.356 43.0736C180.851 43.0736 179.602 43.6118 178.605 44.6917C177.607 45.7681 177.11 47.152 177.11 48.8365C177.11 50.5209 177.618 51.9328 178.629 53.0267C179.643 54.124 180.889 54.6692 182.373 54.6692C183.857 54.6692 185.172 54.131 186.18 53.0511C187.188 51.9748 187.692 50.5594 187.692 48.8155C187.692 47.0716 187.188 45.7191 186.18 44.6602C185.172 43.6013 183.899 43.0701 182.356 43.0701V43.0736Z" fill="white"/>
<path d="M199.085 39.0264H204.01V48.4937C204.01 50.3354 204.135 51.618 204.387 52.3344C204.639 53.0508 205.039 53.6065 205.595 54.0049C206.15 54.4033 206.83 54.6025 207.641 54.6025C208.452 54.6025 209.139 54.4068 209.705 54.0154C210.271 53.624 210.692 53.0473 210.965 52.289C211.168 51.7228 211.268 50.5136 211.268 48.6579V39.0299H216.138V47.3579C216.138 50.7897 215.872 53.1382 215.334 54.4033C214.678 55.9445 213.715 57.1292 212.445 57.954C211.172 58.7787 209.553 59.1911 207.593 59.1911C205.463 59.1911 203.741 58.7088 202.426 57.7443C201.111 56.7797 200.186 55.4377 199.651 53.7148C199.272 52.5231 199.082 50.3529 199.082 47.2111V39.0264H199.085Z" fill="white"/>
<path d="M237.185 39.0267H242.054V58.6847H237.185V56.6053C236.236 57.5209 235.28 58.1815 234.324 58.5834C233.368 58.9852 232.332 59.1879 231.214 59.1879C228.709 59.1879 226.538 58.2024 224.709 56.2349C222.879 54.2673 221.965 51.8175 221.965 48.8924C221.965 45.9673 222.848 43.3707 224.619 41.4311C226.389 39.4915 228.539 38.5234 231.069 38.5234C232.232 38.5234 233.326 38.7471 234.348 39.1909C235.369 39.6348 236.315 40.3058 237.181 41.1969V39.0302L237.185 39.0267ZM232.063 43.0736C230.558 43.0736 229.309 43.6118 228.312 44.6917C227.314 45.7681 226.817 47.152 226.817 48.8365C226.817 50.5209 227.325 51.9328 228.336 53.0267C229.35 54.124 230.596 54.6692 232.08 54.6692C233.564 54.6692 234.879 54.131 235.887 53.0511C236.895 51.9748 237.399 50.5594 237.399 48.8155C237.399 47.0716 236.895 45.7191 235.887 44.6602C234.879 43.6013 233.606 43.0701 232.063 43.0701V43.0736Z" fill="white"/>
<path d="M263.134 31.4395H268.004V58.6846H263.134V56.6052C262.185 57.5208 261.229 58.1813 260.273 58.5832C259.317 58.9851 258.282 59.1878 257.163 59.1878C254.658 59.1878 252.487 58.2023 250.658 56.2348C248.829 54.2672 247.914 51.8174 247.914 48.8923C247.914 45.9672 248.798 43.3706 250.568 41.431C252.339 39.4914 254.489 38.5233 257.018 38.5233C258.181 38.5233 259.276 38.747 260.297 39.1908C261.319 39.6347 262.264 40.3057 263.131 41.1968V31.4395H263.134ZM258.012 43.0735C256.508 43.0735 255.258 43.6117 254.261 44.6916C253.263 45.768 252.766 47.1519 252.766 48.8364C252.766 50.5208 253.274 51.9327 254.285 53.0266C255.3 54.1239 256.546 54.6691 258.03 54.6691C259.514 54.6691 260.829 54.1309 261.836 53.051C262.844 51.9747 263.348 50.5593 263.348 48.8154C263.348 47.0715 262.844 45.719 261.836 44.6601C260.829 43.6012 259.555 43.07 258.012 43.07V43.0735Z" fill="white"/>
<path d="M100.27 36.7765L96.7772 40.149C94.3993 37.6048 91.7246 36.3327 88.7566 36.3327C86.251 36.3327 84.1388 37.1994 82.4201 38.9363C80.7049 40.6732 79.8455 42.812 79.8455 45.3561C79.8455 47.128 80.2251 48.7006 80.9879 50.0776C81.7471 51.451 82.8239 52.5309 84.2148 53.3137C85.6056 54.0965 87.1518 54.4879 88.8498 54.4879C90.2993 54.4879 91.6246 54.2154 92.8256 53.6667C94.0266 53.118 95.345 52.122 96.7842 50.6752L100.17 54.2538C98.2302 56.1689 96.3976 57.4969 94.6754 58.2378C92.9498 58.9787 90.9826 59.3492 88.7704 59.3492C84.691 59.3492 81.3502 58.0386 78.7515 55.421C76.1527 52.8 74.8516 49.445 74.8516 45.3492C74.8516 42.7001 75.4417 40.3447 76.6255 38.2862C77.8093 36.2278 79.5038 34.5713 81.7092 33.3167C83.9145 32.0656 86.2924 31.4365 88.836 31.4365C90.9999 31.4365 93.0844 31.8978 95.0896 32.8239C97.0948 33.7501 98.8204 35.0676 100.273 36.773L100.27 36.7765Z" fill="white"/>
<path d="M107.83 30.9326C108.683 30.9326 109.414 31.2471 110.029 31.8727C110.639 32.4983 110.943 33.2566 110.943 34.1478C110.943 35.039 110.639 35.7764 110.035 36.3984C109.432 37.0205 108.707 37.328 107.865 37.328C107.023 37.328 106.26 37.0135 105.649 36.3809C105.038 35.7484 104.734 34.9795 104.734 34.0779C104.734 33.1763 105.038 32.4703 105.642 31.8552C106.246 31.2402 106.974 30.9326 107.83 30.9326ZM105.394 39.0265H110.263V58.6845H105.394V39.0265Z" fill="white"/>
<path d="M117.108 31.7822H121.978V39.0269H124.866V43.273H121.978V58.6849H117.108V43.273H114.609V39.0269H117.108V31.7822Z" fill="white"/>
<path d="M127.148 39.0273H132.125L137.167 51.3603L142.73 39.0273H147.721L135.562 65.8741H130.53L134.523 57.2176L127.145 39.0273H127.148Z" fill="white"/>
<path d="M166.632 35.7205L162.932 39.0266C161.635 37.1953 160.309 36.2797 158.963 36.2797C158.308 36.2797 157.773 36.4579 157.355 36.8109C156.938 37.1674 156.73 37.5658 156.73 38.0131C156.73 38.4604 156.879 38.8798 157.176 39.2782C157.579 39.8094 158.801 40.9452 160.841 42.6926C162.746 44.3072 163.902 45.3241 164.309 45.747C165.321 46.7814 166.038 47.774 166.463 48.7175C166.884 49.6646 167.098 50.6956 167.098 51.8174C167.098 53.9981 166.353 55.7979 164.865 57.2203C163.378 58.6427 161.435 59.3521 159.043 59.3521C157.172 59.3521 155.547 58.8873 154.159 57.9612C152.772 57.0351 151.585 55.5777 150.598 53.5892L154.798 51.0241C156.061 53.3726 157.514 54.5468 159.157 54.5468C160.013 54.5468 160.734 54.2952 161.321 53.7884C161.904 53.2817 162.197 52.6981 162.197 52.0376C162.197 51.4365 161.976 50.8319 161.535 50.2308C161.093 49.6297 160.123 48.7071 158.622 47.4664C155.761 45.1075 153.914 43.2832 153.083 42.0006C152.251 40.718 151.83 39.439 151.83 38.1599C151.83 36.3181 152.523 34.735 153.911 33.4175C155.298 32.1 157.01 31.4395 159.046 31.4395C160.358 31.4395 161.604 31.747 162.787 32.3621C163.971 32.9771 165.255 34.0955 166.636 35.724L166.632 35.7205Z" fill="white"/>
<path d="M187.478 39.0267H192.347V65.8734H187.478V56.6053C186.529 57.5209 185.573 58.1815 184.617 58.5834C183.661 58.9853 182.625 59.1879 181.507 59.1879C179.002 59.1879 176.831 58.2024 175.002 56.2349C173.172 54.2673 172.258 51.8175 172.258 48.8924C172.258 45.9673 173.141 43.3707 174.912 41.4311C176.682 39.4915 178.832 38.5234 181.362 38.5234C182.525 38.5234 183.619 38.7471 184.641 39.1909C185.662 39.6348 186.608 40.3058 187.474 41.1969V39.0302L187.478 39.0267ZM182.356 43.0736C180.851 43.0736 179.602 43.6118 178.605 44.6917C177.607 45.7681 177.11 47.152 177.11 48.8365C177.11 50.5209 177.618 51.9328 178.629 53.0267C179.643 54.124 180.889 54.6692 182.373 54.6692C183.857 54.6692 185.172 54.131 186.18 53.0511C187.188 51.9748 187.692 50.5594 187.692 48.8155C187.692 47.0716 187.188 45.7191 186.18 44.6602C185.172 43.6013 183.899 43.0701 182.356 43.0701V43.0736Z" fill="white"/>
<path d="M199.085 39.0264H204.01V48.4937C204.01 50.3354 204.135 51.618 204.387 52.3344C204.639 53.0508 205.039 53.6065 205.595 54.0049C206.15 54.4033 206.83 54.6025 207.641 54.6025C208.452 54.6025 209.139 54.4068 209.705 54.0154C210.271 53.624 210.692 53.0473 210.965 52.289C211.168 51.7228 211.268 50.5136 211.268 48.6579V39.0299H216.138V47.3579C216.138 50.7897 215.872 53.1382 215.334 54.4033C214.678 55.9445 213.715 57.1292 212.445 57.954C211.172 58.7787 209.553 59.1911 207.593 59.1911C205.463 59.1911 203.741 58.7088 202.426 57.7443C201.111 56.7797 200.186 55.4377 199.651 53.7148C199.272 52.5231 199.082 50.3529 199.082 47.2111V39.0264H199.085Z" fill="white"/>
<path d="M237.185 39.0267H242.054V58.6847H237.185V56.6053C236.236 57.5209 235.28 58.1815 234.324 58.5834C233.368 58.9852 232.332 59.1879 231.214 59.1879C228.709 59.1879 226.538 58.2024 224.709 56.2349C222.879 54.2673 221.965 51.8175 221.965 48.8924C221.965 45.9673 222.848 43.3707 224.619 41.4311C226.389 39.4915 228.539 38.5234 231.069 38.5234C232.232 38.5234 233.326 38.7471 234.348 39.1909C235.369 39.6348 236.315 40.3058 237.181 41.1969V39.0302L237.185 39.0267ZM232.063 43.0736C230.558 43.0736 229.309 43.6118 228.312 44.6917C227.314 45.7681 226.817 47.152 226.817 48.8365C226.817 50.5209 227.325 51.9328 228.336 53.0267C229.35 54.124 230.596 54.6692 232.08 54.6692C233.564 54.6692 234.879 54.131 235.887 53.0511C236.895 51.9748 237.399 50.5594 237.399 48.8155C237.399 47.0716 236.895 45.7191 235.887 44.6602C234.879 43.6013 233.606 43.0701 232.063 43.0701V43.0736Z" fill="white"/>
<path d="M263.134 31.4395H268.004V58.6846H263.134V56.6052C262.185 57.5208 261.229 58.1813 260.273 58.5832C259.317 58.9851 258.282 59.1878 257.163 59.1878C254.658 59.1878 252.487 58.2023 250.658 56.2348C248.829 54.2672 247.914 51.8174 247.914 48.8923C247.914 45.9672 248.798 43.3706 250.568 41.431C252.339 39.4914 254.489 38.5233 257.018 38.5233C258.181 38.5233 259.276 38.747 260.297 39.1908C261.319 39.6347 262.264 40.3057 263.131 41.1968V31.4395H263.134ZM258.012 43.0735C256.508 43.0735 255.258 43.6117 254.261 44.6916C253.263 45.768 252.766 47.1519 252.766 48.8364C252.766 50.5208 253.274 51.9327 254.285 53.0266C255.3 54.1239 256.546 54.6691 258.03 54.6691C259.514 54.6691 260.829 54.1309 261.836 53.051C262.844 51.9747 263.348 50.5593 263.348 48.8154C263.348 47.0715 262.844 45.719 261.836 44.6601C260.829 43.6012 259.555 43.07 258.012 43.07V43.0735Z" fill="white"/>
<path d="M262.29 64.4678H263.299L262.446 70.6471L266.331 67.6212H267.948L263.262 71.2703L267.392 75.7902H266.012L262.29 71.7358L261.749 75.7902H260.711L262.29 64.4678Z" fill="white"/>
<path d="M256.84 67.6204H257.87L257.737 68.649C258.014 68.2586 258.347 67.9558 258.738 67.7405C259.128 67.5203 259.529 67.4102 259.939 67.4102C260.231 67.4102 260.535 67.4802 260.851 67.6204L260.362 68.5814C260.105 68.4763 259.89 68.4238 259.716 68.4238C259.356 68.4238 258.997 68.5514 258.641 68.8067C258.29 69.062 258.004 69.4349 257.781 69.9254C257.564 70.411 257.378 71.2118 257.225 72.3281L256.751 75.7894H255.742L256.84 67.6204Z" fill="white"/>
<path d="M250.947 67.4102C251.634 67.4102 252.264 67.5778 252.838 67.9132C253.411 68.2436 253.859 68.7066 254.18 69.3022C254.501 69.8929 254.662 70.5636 254.662 71.3145C254.662 72.1704 254.457 72.9663 254.046 73.7021C253.636 74.4329 253.085 74.9985 252.393 75.399C251.701 75.7994 250.917 75.9996 250.043 75.9996C248.96 75.9996 248.068 75.6417 247.366 74.9259C246.669 74.2051 246.32 73.2891 246.32 72.1779C246.32 71.3069 246.525 70.5036 246.936 69.7678C247.346 69.0319 247.907 68.4563 248.619 68.0409C249.336 67.6204 250.112 67.4102 250.947 67.4102ZM250.925 68.4088C250.282 68.4088 249.677 68.5714 249.108 68.8968C248.545 69.2222 248.11 69.6701 247.803 70.2408C247.502 70.8064 247.351 71.4321 247.351 72.1178C247.351 72.9788 247.613 73.6796 248.137 74.2202C248.661 74.7557 249.338 75.0235 250.169 75.0235C250.816 75.0235 251.402 74.8684 251.926 74.558C252.455 74.2427 252.875 73.7897 253.186 73.199C253.498 72.6084 253.654 71.9752 253.654 71.2994C253.654 70.7338 253.537 70.2333 253.305 69.7978C253.073 69.3573 252.744 69.0169 252.319 68.7767C251.894 68.5314 251.429 68.4088 250.925 68.4088Z" fill="white"/>
<path d="M237.531 64.7451H238.673L241.009 69.7606L244.946 64.7451H246.266L241.431 70.8944L240.771 75.7898H239.704L240.364 70.8343L237.531 64.7451Z" fill="white"/>
<path d="M220.816 67.6211H221.847L223.508 73.3874L226.541 67.6211H226.719L228.557 73.4475L231.523 67.6211H232.636L228.468 75.7901H228.261L226.392 70.0237L223.36 75.7901H223.167L220.816 67.6211Z" fill="white"/>
<path d="M219.067 71.9151H211.875C211.86 72.8862 212.11 73.6495 212.624 74.2051C213.138 74.7608 213.822 75.0386 214.678 75.0386C215.246 75.0386 215.772 74.9209 216.257 74.6857C216.741 74.4504 217.142 74.12 217.458 73.6946L218.229 74.3328C217.839 74.8383 217.327 75.2438 216.694 75.5491C216.067 75.8495 215.387 75.9996 214.655 75.9996C213.39 75.9996 212.438 75.6042 211.801 74.8133C211.168 74.0174 210.852 73.124 210.852 72.1329C210.852 71.322 211.064 70.5411 211.489 69.7903C211.919 69.0395 212.493 68.4563 213.209 68.0409C213.926 67.6204 214.702 67.4102 215.538 67.4102C216.571 67.4102 217.426 67.7655 218.103 68.4763C218.78 69.1821 219.119 70.0831 219.119 71.1793C219.119 71.3795 219.102 71.6248 219.067 71.9151ZM218.118 71.0066C218.088 70.2358 217.829 69.6126 217.339 69.1371C216.85 68.6565 216.235 68.4163 215.493 68.4163C214.687 68.4163 213.976 68.6465 213.358 69.107C212.745 69.5675 212.31 70.2007 212.053 71.0066H218.118Z" fill="white"/>
<path d="M208.56 64.7451H209.627L208.152 75.7898H207.915L201.775 67.2304L200.633 75.7898H199.551L201.019 64.7451H201.256L207.41 73.3196L208.56 64.7451Z" fill="white"/>
<defs>
<linearGradient id="paint0_linear_194_1946" x1="19.2062" y1="18.7641" x2="36.1862" y2="18.7641" gradientUnits="userSpaceOnUse">
<stop stop-color="#4EF0F8"/>
<stop offset="0.41" stop-color="#44C8F8"/>
<stop offset="1" stop-color="#388CFC"/>
</linearGradient>
<linearGradient id="paint1_linear_194_1946" x1="34.987" y1="6.05471" x2="46.5666" y2="23.4105" gradientUnits="userSpaceOnUse">
<stop stop-color="#4EF0F8"/>
<stop offset="0.41" stop-color="#44C8F8"/>
<stop offset="1" stop-color="#388CFC"/>
</linearGradient>
<linearGradient id="paint2_linear_194_1946" x1="-0.00172563" y1="45.226" x2="66.1826" y2="45.226" gradientUnits="userSpaceOnUse">
<stop stop-color="#4EF0F8"/>
<stop offset="0.41" stop-color="#44C8F8"/>
<stop offset="1" stop-color="#388CFC"/>
</linearGradient>
</defs>
</svg>
