<svg width="64" height="64" viewBox="0 0 64 64" fill="none" xmlns="http://www.w3.org/2000/svg">
<g clip-path="url(#clip0_194_209)">
<path d="M19.8328 17.6001C20.2732 17.6001 20.6586 18.0481 20.6586 18.5601V62.0801C20.6586 62.5921 20.2732 63.0401 19.8328 63.0401H6.12428C5.68385 63.0401 5.29847 62.5921 5.29847 62.0801V18.5601C5.29847 18.0481 5.68385 17.6001 6.12428 17.6001H19.8328ZM19.8328 16.6401H6.12428C5.18836 16.6401 4.47266 17.4721 4.47266 18.5601V62.0801C4.47266 63.1681 5.18836 64.0001 6.12428 64.0001H19.8328C20.7687 64.0001 21.4844 63.1681 21.4844 62.0801V18.5601C21.4844 17.4721 20.7687 16.6401 19.8328 16.6401Z" fill="#00003E"/>
<path d="M9.70387 10.4961C10.3095 10.4961 10.7499 11.0721 10.7499 11.7121V16.6401H8.65784V11.7121C8.65784 11.0081 9.09828 10.4961 9.70387 10.4961ZM9.70387 9.53613C8.65784 9.53613 7.83203 10.4961 7.83203 11.7121V17.6001H11.6308V11.7121C11.5757 10.4961 10.7499 9.53613 9.70387 9.53613Z" fill="#00003E"/>
<path d="M17.1922 10.4961C17.7977 10.4961 18.2382 11.0721 18.2382 11.7121V16.6401H16.0911V11.7121C16.0911 11.0081 16.5866 10.4961 17.1922 10.4961ZM17.1922 9.53613C16.1461 9.53613 15.3203 10.4961 15.3203 11.7121V17.6001H19.119V11.7121C19.064 10.4961 18.2382 9.53613 17.1922 9.53613Z" fill="#00003E"/>
<path d="M15.4291 27.3921C15.5943 27.3921 15.7044 27.5201 15.7044 27.7121V33.1521C15.7044 33.3441 15.5943 33.4721 15.4291 33.4721H10.7495C10.5844 33.4721 10.4742 33.3441 10.4742 33.1521V27.7121C10.4742 27.5201 10.5844 27.3921 10.7495 27.3921H15.4291ZM15.4291 26.4321H10.7495C10.1439 26.4321 9.64844 27.0081 9.64844 27.7121V33.1521C9.64844 33.8561 10.1439 34.4321 10.7495 34.4321H15.4291C16.0347 34.4321 16.5302 33.8561 16.5302 33.1521V27.7121C16.5302 27.0081 16.0347 26.4321 15.4291 26.4321Z" fill="#00003E"/>
<path d="M13.0625 29.376C13.558 29.376 13.9984 29.824 13.9984 30.464C13.9984 31.104 13.6131 31.552 13.0625 31.552C12.512 31.552 12.1266 31.104 12.1266 30.464C12.1266 29.824 12.567 29.376 13.0625 29.376ZM13.0625 28.416C12.1266 28.416 11.3008 29.312 11.3008 30.464C11.3008 31.616 12.0715 32.512 13.0625 32.512C14.0535 32.512 14.8242 31.616 14.8242 30.464C14.8242 29.312 14.0535 28.416 13.0625 28.416Z" fill="#00003E"/>
<path d="M13.0625 26.816V23.936" stroke="#00003E" stroke-width="1.5" stroke-linecap="round"/>
<path d="M13.0625 37.1197V34.3037" stroke="#00003E" stroke-width="1.5" stroke-linecap="round"/>
<path d="M15.4291 43.5201C15.5943 43.5201 15.7044 43.6481 15.7044 43.8401V49.2801C15.7044 49.4721 15.5943 49.6001 15.4291 49.6001H10.7495C10.5844 49.6001 10.4742 49.4721 10.4742 49.2801V43.8401C10.4742 43.6481 10.5844 43.5201 10.7495 43.5201H15.4291ZM15.4291 42.5601H10.7495C10.1439 42.5601 9.64844 43.1361 9.64844 43.8401V49.2801C9.64844 49.9841 10.1439 50.5601 10.7495 50.5601H15.4291C16.0347 50.5601 16.5302 49.9841 16.5302 49.2801V43.8401C16.5302 43.1361 16.0347 42.5601 15.4291 42.5601Z" fill="#00003E"/>
<path d="M13.0625 45.5039C13.558 45.5039 13.9984 45.9519 13.9984 46.5919C13.9984 47.2319 13.6131 47.6799 13.0625 47.6799C12.512 47.6799 12.1266 47.2319 12.1266 46.5919C12.1266 45.9519 12.567 45.5039 13.0625 45.5039ZM13.0625 44.5439C12.1266 44.5439 11.3008 45.4399 11.3008 46.5919C11.3008 47.7439 12.0715 48.6399 13.0625 48.6399C14.0535 48.6399 14.8242 47.7439 14.8242 46.5919C14.8242 45.4399 14.0535 44.5439 13.0625 44.5439Z" fill="#00003E"/>
<path d="M13.0625 42.88V40.064" stroke="#00003E" stroke-width="1.5" stroke-linecap="round"/>
<path d="M13.0625 53.2481V50.4321" stroke="#00003E" stroke-width="1.5" stroke-linecap="round"/>
<path d="M57.8757 0.96C58.3162 0.96 58.7015 1.408 58.7015 1.92V45.44C58.7015 45.952 58.3162 46.4 57.8757 46.4H44.1672C43.7268 46.4 43.3414 45.952 43.3414 45.44V1.92C43.3414 1.408 43.7268 0.96 44.1672 0.96H57.8757ZM57.8757 0H44.1672C43.2313 0 42.5156 0.832 42.5156 1.92V45.44C42.5156 46.528 43.2313 47.36 44.1672 47.36H57.8757C58.8116 47.36 59.5273 46.528 59.5273 45.44V1.92C59.5273 0.832 58.8116 0 57.8757 0Z" fill="#00003E"/>
<path d="M55.344 47.3599V52.2879C55.344 52.9919 54.8485 53.5039 54.298 53.5039C53.6924 53.5039 53.252 52.9279 53.252 52.2879V47.3599H55.344ZM56.1698 46.3999H52.3711V52.2879C52.3711 53.5039 53.1969 54.4639 54.2429 54.4639C55.289 54.4639 56.1148 53.5039 56.1148 52.2879V46.3999H56.1698Z" fill="#00003E"/>
<path d="M47.9104 47.3599V52.2879C47.9104 52.9919 47.4149 53.5039 46.8644 53.5039C46.2588 53.5039 45.8184 52.9279 45.8184 52.2879V47.3599H47.9104ZM48.7362 46.3999H44.9375V52.2879C44.9375 53.5039 45.7633 54.4639 46.8093 54.4639C47.8554 54.4639 48.6812 53.5039 48.6812 52.2879V46.3999H48.7362Z" fill="#00003E"/>
<path d="M53.3041 30.4639C53.4693 30.4639 53.5794 30.5919 53.5794 30.7839V36.2239C53.5794 36.4159 53.4693 36.5439 53.3041 36.5439H48.6245C48.4594 36.5439 48.3492 36.4159 48.3492 36.2239V30.7839C48.3492 30.5919 48.4594 30.4639 48.6245 30.4639H53.3041ZM53.3041 29.5039H48.6245C48.0189 29.5039 47.5234 30.0799 47.5234 30.7839V36.2239C47.5234 36.9279 48.0189 37.5039 48.6245 37.5039H53.3041C53.9097 37.5039 54.4052 36.9279 54.4052 36.2239V30.7839C54.4052 30.0799 53.9097 29.5039 53.3041 29.5039Z" fill="#00003E"/>
<path d="M50.9375 32.4478C51.433 32.4478 51.8734 32.8958 51.8734 33.5358C51.8734 34.1758 51.4881 34.6238 50.9375 34.6238C50.387 34.6238 50.0016 34.1758 50.0016 33.5358C50.0016 32.8958 50.442 32.4478 50.9375 32.4478ZM50.9375 31.4878C50.0016 31.4878 49.1758 32.3838 49.1758 33.5358C49.1758 34.6878 49.9465 35.5838 50.9375 35.5838C51.9285 35.5838 52.6992 34.6878 52.6992 33.5358C52.6992 32.3838 51.8734 31.4878 50.9375 31.4878Z" fill="#00003E"/>
<path d="M50.9375 37.1841V40.0641" stroke="#00003E" stroke-width="1.5" stroke-linecap="round"/>
<path d="M50.9375 26.8799V29.6959" stroke="#00003E" stroke-width="1.5" stroke-linecap="round"/>
<path d="M53.3041 14.3999C53.4693 14.3999 53.5794 14.5279 53.5794 14.7199V20.1599C53.5794 20.3519 53.4693 20.4799 53.3041 20.4799H48.6245C48.4594 20.4799 48.3492 20.3519 48.3492 20.1599V14.7199C48.3492 14.5279 48.4594 14.3999 48.6245 14.3999H53.3041ZM53.3041 13.4399H48.6245C48.0189 13.4399 47.5234 14.0159 47.5234 14.7199V20.1599C47.5234 20.8639 48.0189 21.4399 48.6245 21.4399H53.3041C53.9097 21.4399 54.4052 20.8639 54.4052 20.1599V14.7199C54.4052 14.0159 53.9097 13.4399 53.3041 13.4399Z" fill="#00003E"/>
<path d="M50.9375 16.3838C51.433 16.3838 51.8734 16.8318 51.8734 17.4718C51.8734 18.1118 51.4881 18.5598 50.9375 18.5598C50.387 18.5598 50.0016 18.1118 50.0016 17.4718C50.0016 16.8318 50.442 16.3838 50.9375 16.3838ZM50.9375 15.4238C50.0016 15.4238 49.1758 16.3198 49.1758 17.4718C49.1758 18.6238 49.9465 19.5198 50.9375 19.5198C51.9285 19.5198 52.6992 18.6238 52.6992 17.4718C52.6992 16.3198 51.8734 15.4238 50.9375 15.4238Z" fill="#00003E"/>
<path d="M50.9375 21.1201V23.9361" stroke="#00003E" stroke-width="1.5" stroke-linecap="round"/>
<path d="M50.9375 10.752V13.568" stroke="#00003E" stroke-width="1.5" stroke-linecap="round"/>
<path d="M42.4598 3.83979V19.8398L21.8145 59.5198V43.5198L42.4598 3.83979ZM43.2856 0.383789L20.9336 43.1998V62.9758L43.2856 20.1598V20.0958V0.383789Z" fill="#00003E"/>
<path d="M30.0156 35.8402L33.9795 28.1602" stroke="#00003E" stroke-width="1.5" stroke-linecap="round"/>
<path d="M36.3516 23.68L40.3155 16" stroke="#00003E" stroke-width="1.5" stroke-linecap="round"/>
<path d="M23.8516 47.3602L27.8705 39.6802" stroke="#00003E" stroke-width="1.5" stroke-linecap="round"/>
</g>
<defs>
<clipPath id="clip0_194_209">
<rect width="64" height="64" fill="white"/>
</clipPath>
</defs>
</svg>
