<?xml version="1.0" encoding="UTF-8"?>
<svg id="Layer_2" data-name="Layer 2" xmlns="http://www.w3.org/2000/svg" xmlns:xlink="http://www.w3.org/1999/xlink" viewBox="0 0 776.56 225.07">
  <defs>
    <style>
      .cls-1 {
        stroke: url(#New_Gradient_Swatch_copy_3-3);
        stroke-width: 23.43px;
      }

      .cls-1, .cls-2, .cls-3 {
        fill: none;
        stroke-miterlimit: 10;
      }

      .cls-4, .cls-5 {
        fill: #00003e;
      }

      .cls-2 {
        stroke: url(#New_Gradient_Swatch_copy_3);
      }

      .cls-2, .cls-3 {
        stroke-width: 15.62px;
      }

      .cls-5, .cls-6 {
        font-family: CenturyGothic-Italic, 'Century Gothic';
        font-size: 39.68px;
        font-style: italic;
        letter-spacing: .05em;
      }

      .cls-3 {
        stroke: url(#New_Gradient_Swatch_copy_3-2);
      }
    </style>
    <linearGradient id="New_Gradient_Swatch_copy_3" data-name="New Gradient Swatch copy 3" x1="55.66" y1="53.64" x2="104.86" y2="53.64" gradientUnits="userSpaceOnUse">
      <stop offset="0" stop-color="#4ef0f8"/>
      <stop offset=".41" stop-color="#44c8f8"/>
      <stop offset="1" stop-color="#388cfc"/>
    </linearGradient>
    <linearGradient id="New_Gradient_Swatch_copy_3-2" data-name="New Gradient Swatch copy 3" x1="-202.88" y1="-2199.36" x2="-142.95" y2="-2199.36" gradientTransform="translate(-1623.55 1396.75) rotate(56.62)" xlink:href="#New_Gradient_Swatch_copy_3"/>
    <linearGradient id="New_Gradient_Swatch_copy_3-3" data-name="New Gradient Swatch copy 3" x1="0" y1="129.36" x2="191.77" y2="129.36" xlink:href="#New_Gradient_Swatch_copy_3"/>
  </defs>
  <g id="Horizontal_Logo" data-name="Horizontal Logo">
    <g>
      <path class="cls-2" d="m98.1,82.78l-23.05-39.92m-3.86-14.47c-10.29.32-10.29,15.26,0,15.58,10.26-.3,10.33-15.24,0-15.58Z"/>
      <path class="cls-3" d="m98.61,82.97l29.88-59.6m10.36-12.08c-5.85-8.31-18.19-.2-12.85,8.47,5.83,8.31,18.19.23,12.85-8.47Z"/>
      <path class="cls-1" d="m180.05,145.53v20.04c0,5.89-5.2,10.67-11.62,10.67H23.34c-6.42,0-11.62-4.78-11.62-10.67v-72.41c0-5.89,5.2-10.67,11.62-10.67h145.09c6.42,0,11.62,4.78,11.62,10.67v20.01"/>
      <g>
        <g>
          <path d="m290.55,105.18l-10.12,9.65c-6.89-7.28-14.64-10.92-23.24-10.92-7.26,0-13.38,2.48-18.36,7.45-4.97,4.97-7.46,11.09-7.46,18.37,0,5.07,1.1,9.57,3.31,13.51,2.2,3.93,5.32,7.02,9.35,9.26,4.03,2.24,8.51,3.36,13.43,3.36,4.2,0,8.04-.78,11.52-2.35,3.48-1.57,7.3-4.42,11.47-8.56l9.81,10.24c-5.62,5.48-10.93,9.28-15.92,11.4-5,2.12-10.7,3.18-17.11,3.18-11.82,0-21.5-3.75-29.03-11.24-7.53-7.5-11.3-17.1-11.3-28.82,0-7.58,1.71-14.32,5.14-20.21,3.43-5.89,8.34-10.63,14.73-14.22,6.39-3.58,13.28-5.38,20.65-5.38,6.27,0,12.31,1.32,18.12,3.97,5.81,2.65,10.81,6.42,15.02,11.3Z"/>
          <path d="m312.46,88.46c2.47,0,4.59.9,6.37,2.69,1.77,1.79,2.65,3.96,2.65,6.51s-.88,4.66-2.63,6.44c-1.75,1.78-3.85,2.66-6.29,2.66s-4.65-.9-6.42-2.71c-1.77-1.81-2.65-4.01-2.65-6.59s.88-4.6,2.63-6.36c1.75-1.76,3.86-2.64,6.34-2.64Zm-7.06,23.16h14.11v56.25h-14.11v-56.25Z"/>
          <path d="m339.34,90.89h14.11v20.73h8.37v12.15h-8.37v44.1h-14.11v-44.1h-7.24v-12.15h7.24v-20.73Z"/>
          <path d="m368.43,111.62h14.42l14.61,35.29,16.12-35.29h14.46l-35.23,76.82h-14.58l11.57-24.77-21.38-52.05Z"/>
          <path d="m482.84,102.16l-10.72,9.46c-3.76-5.24-7.6-7.86-11.5-7.86-1.9,0-3.45.51-4.66,1.52-1.21,1.02-1.81,2.16-1.81,3.44s.43,2.48,1.29,3.62c1.17,1.52,4.71,4.77,10.62,9.77,5.52,4.62,8.87,7.53,10.05,8.74,2.93,2.96,5.01,5.8,6.24,8.5,1.22,2.71,1.84,5.66,1.84,8.87,0,6.24-2.16,11.39-6.47,15.46-4.31,4.07-9.94,6.1-16.87,6.1-5.42,0-10.13-1.33-14.15-3.98-4.02-2.65-7.46-6.82-10.32-12.51l12.17-7.34c3.66,6.72,7.87,10.08,12.63,10.08,2.48,0,4.57-.72,6.27-2.17,1.69-1.45,2.54-3.12,2.54-5.01,0-1.72-.64-3.45-1.92-5.17-1.28-1.72-4.09-4.36-8.44-7.91-8.29-6.75-13.64-11.97-16.05-15.64s-3.63-7.33-3.63-10.99c0-5.27,2.01-9.8,6.03-13.57,4.02-3.77,8.98-5.66,14.88-5.66,3.8,0,7.41.88,10.84,2.64,3.43,1.76,7.15,4.96,11.15,9.62Z"/>
          <path d="m543.24,111.62h14.11v76.82h-14.11v-26.52c-2.75,2.62-5.52,4.51-8.29,5.66s-5.77,1.73-9.01,1.73c-7.26,0-13.55-2.82-18.85-8.45-5.3-5.63-7.95-12.64-7.95-21.01s2.56-15.8,7.69-21.35c5.13-5.55,11.36-8.32,18.69-8.32,3.37,0,6.54.64,9.5,1.91,2.96,1.27,5.7,3.19,8.21,5.74v-6.2Zm-14.84,11.58c-4.36,0-7.98,1.54-10.87,4.63-2.89,3.08-4.33,7.04-4.33,11.86s1.47,8.86,4.4,11.99c2.94,3.14,6.55,4.7,10.85,4.7s8.11-1.54,11.03-4.63c2.92-3.08,4.38-7.13,4.38-12.12s-1.46-8.86-4.38-11.89c-2.92-3.03-6.61-4.55-11.08-4.55Z"/>
          <path d="m576.87,111.62h14.27v27.09c0,5.27.36,8.94,1.09,10.99.73,2.05,1.89,3.64,3.5,4.78,1.61,1.14,3.58,1.71,5.93,1.71s4.34-.56,5.98-1.68c1.64-1.12,2.86-2.77,3.65-4.94.59-1.62.88-5.08.88-10.39v-27.55h14.11v23.83c0,9.82-.77,16.54-2.33,20.16-1.9,4.41-4.69,7.8-8.37,10.16-3.69,2.36-8.38,3.54-14.06,3.54-6.17,0-11.16-1.38-14.97-4.14-3.81-2.76-6.49-6.6-8.04-11.53-1.1-3.41-1.65-9.62-1.65-18.61v-23.42Z"/>
          <path d="m687.26,111.62h14.11v56.25h-14.11v-5.95c-2.75,2.62-5.52,4.51-8.29,5.66s-5.77,1.73-9.01,1.73c-7.26,0-13.55-2.82-18.85-8.45-5.3-5.63-7.95-12.64-7.95-21.01s2.56-15.8,7.69-21.35c5.13-5.55,11.36-8.32,18.69-8.32,3.37,0,6.54.64,9.5,1.91,2.96,1.27,5.7,3.19,8.21,5.74v-6.2Zm-14.84,11.58c-4.36,0-7.98,1.54-10.87,4.63-2.89,3.08-4.33,7.04-4.33,11.86s1.47,8.86,4.4,11.99c2.94,3.14,6.55,4.7,10.85,4.7s8.11-1.54,11.03-4.63c2.92-3.08,4.38-7.13,4.38-12.12s-1.46-8.86-4.38-11.89c-2.92-3.03-6.61-4.55-11.08-4.55Z"/>
          <path d="m762.45,89.91h14.11v77.96h-14.11v-5.95c-2.75,2.62-5.52,4.51-8.29,5.66s-5.77,1.73-9.01,1.73c-7.26,0-13.55-2.82-18.85-8.45-5.3-5.63-7.95-12.64-7.95-21.01s2.56-15.8,7.69-21.35c5.13-5.55,11.36-8.32,18.69-8.32,3.37,0,6.54.64,9.5,1.91,2.96,1.27,5.7,3.19,8.21,5.74v-27.92Zm-14.84,33.29c-4.36,0-7.98,1.54-10.87,4.63-2.89,3.08-4.33,7.04-4.33,11.86s1.47,8.86,4.4,11.99c2.94,3.14,6.55,4.7,10.85,4.7s8.11-1.54,11.03-4.63c2.92-3.08,4.38-7.13,4.38-12.12s-1.46-8.86-4.38-11.89c-2.92-3.03-6.61-4.55-11.08-4.55Z"/>
        </g>
        <g>
          <path class="cls-4" d="m290.55,105.18l-10.12,9.65c-6.89-7.28-14.64-10.92-23.24-10.92-7.26,0-13.38,2.48-18.36,7.45-4.97,4.97-7.46,11.09-7.46,18.37,0,5.07,1.1,9.57,3.31,13.51,2.2,3.93,5.32,7.02,9.35,9.26,4.03,2.24,8.51,3.36,13.43,3.36,4.2,0,8.04-.78,11.52-2.35,3.48-1.57,7.3-4.42,11.47-8.56l9.81,10.24c-5.62,5.48-10.93,9.28-15.92,11.4-5,2.12-10.7,3.18-17.11,3.18-11.82,0-21.5-3.75-29.03-11.24-7.53-7.5-11.3-17.1-11.3-28.82,0-7.58,1.71-14.32,5.14-20.21,3.43-5.89,8.34-10.63,14.73-14.22,6.39-3.58,13.28-5.38,20.65-5.38,6.27,0,12.31,1.32,18.12,3.97,5.81,2.65,10.81,6.42,15.02,11.3Z"/>
          <path class="cls-4" d="m312.46,88.46c2.47,0,4.59.9,6.37,2.69,1.77,1.79,2.65,3.96,2.65,6.51s-.88,4.66-2.63,6.44c-1.75,1.78-3.85,2.66-6.29,2.66s-4.65-.9-6.42-2.71c-1.77-1.81-2.65-4.01-2.65-6.59s.88-4.6,2.63-6.36c1.75-1.76,3.86-2.64,6.34-2.64Zm-7.06,23.16h14.11v56.25h-14.11v-56.25Z"/>
          <path class="cls-4" d="m339.34,90.89h14.11v20.73h8.37v12.15h-8.37v44.1h-14.11v-44.1h-7.24v-12.15h7.24v-20.73Z"/>
          <path class="cls-4" d="m368.43,111.62h14.42l14.61,35.29,16.12-35.29h14.46l-35.23,76.82h-14.58l11.57-24.77-21.38-52.05Z"/>
          <path class="cls-4" d="m482.84,102.16l-10.72,9.46c-3.76-5.24-7.6-7.86-11.5-7.86-1.9,0-3.45.51-4.66,1.52-1.21,1.02-1.81,2.16-1.81,3.44s.43,2.48,1.29,3.62c1.17,1.52,4.71,4.77,10.62,9.77,5.52,4.62,8.87,7.53,10.05,8.74,2.93,2.96,5.01,5.8,6.24,8.5,1.22,2.71,1.84,5.66,1.84,8.87,0,6.24-2.16,11.39-6.47,15.46-4.31,4.07-9.94,6.1-16.87,6.1-5.42,0-10.13-1.33-14.15-3.98-4.02-2.65-7.46-6.82-10.32-12.51l12.17-7.34c3.66,6.72,7.87,10.08,12.63,10.08,2.48,0,4.57-.72,6.27-2.17,1.69-1.45,2.54-3.12,2.54-5.01,0-1.72-.64-3.45-1.92-5.17-1.28-1.72-4.09-4.36-8.44-7.91-8.29-6.75-13.64-11.97-16.05-15.64s-3.63-7.33-3.63-10.99c0-5.27,2.01-9.8,6.03-13.57,4.02-3.77,8.98-5.66,14.88-5.66,3.8,0,7.41.88,10.84,2.64,3.43,1.76,7.15,4.96,11.15,9.62Z"/>
          <path class="cls-4" d="m543.24,111.62h14.11v76.82h-14.11v-26.52c-2.75,2.62-5.52,4.51-8.29,5.66s-5.77,1.73-9.01,1.73c-7.26,0-13.55-2.82-18.85-8.45-5.3-5.63-7.95-12.64-7.95-21.01s2.56-15.8,7.69-21.35c5.13-5.55,11.36-8.32,18.69-8.32,3.37,0,6.54.64,9.5,1.91,2.96,1.27,5.7,3.19,8.21,5.74v-6.2Zm-14.84,11.58c-4.36,0-7.98,1.54-10.87,4.63-2.89,3.08-4.33,7.04-4.33,11.86s1.47,8.86,4.4,11.99c2.94,3.14,6.55,4.7,10.85,4.7s8.11-1.54,11.03-4.63c2.92-3.08,4.38-7.13,4.38-12.12s-1.46-8.86-4.38-11.89c-2.92-3.03-6.61-4.55-11.08-4.55Z"/>
          <path class="cls-4" d="m576.87,111.62h14.27v27.09c0,5.27.36,8.94,1.09,10.99.73,2.05,1.89,3.64,3.5,4.78,1.61,1.14,3.58,1.71,5.93,1.71s4.34-.56,5.98-1.68c1.64-1.12,2.86-2.77,3.65-4.94.59-1.62.88-5.08.88-10.39v-27.55h14.11v23.83c0,9.82-.77,16.54-2.33,20.16-1.9,4.41-4.69,7.8-8.37,10.16-3.69,2.36-8.38,3.54-14.06,3.54-6.17,0-11.16-1.38-14.97-4.14-3.81-2.76-6.49-6.6-8.04-11.53-1.1-3.41-1.65-9.62-1.65-18.61v-23.42Z"/>
          <path class="cls-4" d="m687.26,111.62h14.11v56.25h-14.11v-5.95c-2.75,2.62-5.52,4.51-8.29,5.66s-5.77,1.73-9.01,1.73c-7.26,0-13.55-2.82-18.85-8.45-5.3-5.63-7.95-12.64-7.95-21.01s2.56-15.8,7.69-21.35c5.13-5.55,11.36-8.32,18.69-8.32,3.37,0,6.54.64,9.5,1.91,2.96,1.27,5.7,3.19,8.21,5.74v-6.2Zm-14.84,11.58c-4.36,0-7.98,1.54-10.87,4.63-2.89,3.08-4.33,7.04-4.33,11.86s1.47,8.86,4.4,11.99c2.94,3.14,6.55,4.7,10.85,4.7s8.11-1.54,11.03-4.63c2.92-3.08,4.38-7.13,4.38-12.12s-1.46-8.86-4.38-11.89c-2.92-3.03-6.61-4.55-11.08-4.55Z"/>
          <path class="cls-4" d="m762.45,89.91h14.11v77.96h-14.11v-5.95c-2.75,2.62-5.52,4.51-8.29,5.66s-5.77,1.73-9.01,1.73c-7.26,0-13.55-2.82-18.85-8.45-5.3-5.63-7.95-12.64-7.95-21.01s2.56-15.8,7.69-21.35c5.13-5.55,11.36-8.32,18.69-8.32,3.37,0,6.54.64,9.5,1.91,2.96,1.27,5.7,3.19,8.21,5.74v-27.92Zm-14.84,33.29c-4.36,0-7.98,1.54-10.87,4.63-2.89,3.08-4.33,7.04-4.33,11.86s1.47,8.86,4.4,11.99c2.94,3.14,6.55,4.7,10.85,4.7s8.11-1.54,11.03-4.63c2.92-3.08,4.38-7.13,4.38-12.12s-1.46-8.86-4.38-11.89c-2.92-3.03-6.61-4.55-11.08-4.55Z"/>
        </g>
      </g>
      <g>
        <text class="cls-6" transform="translate(593.21 212.9)"><tspan x="0" y="0">NewYork</tspan></text>
        <text class="cls-5" transform="translate(593.21 212.9)"><tspan x="0" y="0">NewYork</tspan></text>
      </g>
    </g>
  </g>
</svg>