<svg width="65" height="64" viewBox="0 0 65 64" fill="none" xmlns="http://www.w3.org/2000/svg">
<g clip-path="url(#clip0_194_74)">
<path d="M17.9065 0.96C18.0985 0.96 18.2905 1.152 18.2905 1.344V62.656C18.2905 62.848 18.0985 63.04 17.9065 63.04H10.7385C10.5465 63.04 10.3545 62.848 10.3545 62.656V1.344C10.3545 1.152 10.5465 0.96 10.7385 0.96H17.9065ZM17.9065 0H10.7385C9.97053 0 9.39453 0.576 9.39453 1.344V62.656C9.39453 63.424 9.97053 64 10.7385 64H17.9065C18.6745 64 19.2505 63.424 19.2505 62.656V1.344C19.2505 0.576 18.6745 0 17.9065 0Z" fill="#00003E"/>
<path d="M54.1956 0.96C54.3876 0.96 54.5796 1.152 54.5796 1.344V62.656C54.5796 62.848 54.3876 63.04 54.1956 63.04H47.0276C46.8356 63.04 46.6436 62.848 46.6436 62.656V1.344C46.6436 1.152 46.8356 0.96 47.0276 0.96H54.1956ZM54.1956 0H47.0276C46.2596 0 45.6836 0.576 45.6836 1.344V62.656C45.6836 63.424 46.2596 64 47.0276 64H54.1956C54.9636 64 55.5396 63.424 55.5396 62.656V1.344C55.6036 0.576 54.9636 0 54.1956 0Z" fill="#00003E"/>
<path d="M35.5066 25.6641C36.5946 25.6641 37.4906 26.5601 37.4906 27.6481C37.4906 28.7361 36.5946 29.6321 35.5066 29.6321H29.1706C28.0826 29.6321 27.1866 28.7361 27.1866 27.6481C27.1866 26.5601 28.0826 25.6641 29.1706 25.6641H35.5066ZM35.5066 24.7041H29.1706C27.5066 24.7041 26.2266 26.0481 26.2266 27.6481C26.2266 29.3121 27.5706 30.5921 29.1706 30.5921H35.5066C37.1706 30.5921 38.4506 29.2481 38.4506 27.6481C38.5146 26.0481 37.1706 24.7041 35.5066 24.7041Z" fill="#00003E"/>
<path d="M35.5066 34.2403C36.5946 34.2403 37.4906 35.1363 37.4906 36.2243C37.4906 37.3123 36.5946 38.2083 35.5066 38.2083H29.1706C28.0826 38.2083 27.1866 37.3123 27.1866 36.2243C27.1866 35.1363 28.0826 34.2403 29.1706 34.2403H35.5066ZM35.5066 33.2803H29.1706C27.5066 33.2803 26.2266 34.6243 26.2266 36.2243C26.2266 37.8883 27.5706 39.1683 29.1706 39.1683H35.5066C37.1706 39.1683 38.4506 37.8243 38.4506 36.2243C38.5146 34.6243 37.1706 33.2803 35.5066 33.2803Z" fill="#00003E"/>
<path d="M0.5 26.1118C3.636 26.1118 6.196 28.6718 6.196 31.8078C6.196 34.9438 3.636 37.5038 0.5 37.5038" stroke="#00003E" stroke-width="1.5"/>
<path d="M64.5007 26.1118C61.3647 26.1118 58.8047 28.6718 58.8047 31.8078C58.8047 34.9438 61.3647 37.5038 64.5007 37.5038" stroke="#00003E" stroke-width="1.5"/>
<path d="M9.84366 25.5361H7.34766" stroke="#00003E" stroke-width="1.5"/>
<path d="M9.84366 38.4639H7.34766" stroke="#00003E" stroke-width="1.5"/>
<path d="M9.84366 38.6562H7.34766" stroke="#00003E" stroke-width="1.5"/>
<path d="M14.835 4.86377H13.875V5.82377H14.835V4.86377Z" fill="#00003E"/>
<path d="M14.835 9.15186H13.875V10.1119H14.835V9.15186Z" fill="#00003E"/>
<path d="M14.835 15.5518H13.875V16.5118H14.835V15.5518Z" fill="#00003E"/>
<path d="M14.835 19.7759H13.875V20.7359H14.835V19.7759Z" fill="#00003E"/>
<path d="M14.835 26.1758H13.875V27.1358H14.835V26.1758Z" fill="#00003E"/>
<path d="M14.835 30.4639H13.875V31.4239H14.835V30.4639Z" fill="#00003E"/>
<path d="M14.835 43.2642H13.875V44.2242H14.835V43.2642Z" fill="#00003E"/>
<path d="M51.1241 4.86377H50.1641V5.82377H51.1241V4.86377Z" fill="#00003E"/>
<path d="M51.1241 9.15186H50.1641V10.1119H51.1241V9.15186Z" fill="#00003E"/>
<path d="M51.1241 15.5518H50.1641V16.5118H51.1241V15.5518Z" fill="#00003E"/>
<path d="M51.1241 19.7759H50.1641V20.7359H51.1241V19.7759Z" fill="#00003E"/>
<path d="M51.1241 26.1758H50.1641V27.1358H51.1241V26.1758Z" fill="#00003E"/>
<path d="M51.1241 30.4639H50.1641V31.4239H51.1241V30.4639Z" fill="#00003E"/>
<path d="M51.1241 43.2642H50.1641V44.2242H51.1241V43.2642Z" fill="#00003E"/>
<path d="M14.3867 59.328V47.168" stroke="#00003E" stroke-width="1.5"/>
<path d="M50.6133 59.328V47.168" stroke="#00003E" stroke-width="1.5"/>
<path d="M24.0518 16.8959L18.6758 7.2959" stroke="#00003E" stroke-width="1.5"/>
<path d="M40.6289 16.8959L46.0049 7.2959" stroke="#00003E" stroke-width="1.5"/>
<path d="M24.0518 47.2319L18.6758 56.8319" stroke="#00003E" stroke-width="1.5"/>
<path d="M40.6289 47.2319L46.0049 56.8319" stroke="#00003E" stroke-width="1.5"/>
<path d="M0.5 21.1841H9.844" stroke="#00003E" stroke-width="1.5"/>
<path d="M18.9961 21.1841H45.8761" stroke="#00003E" stroke-width="1.5"/>
<path d="M0.5 16.96H9.844" stroke="#00003E" stroke-width="1.5"/>
<path d="M55.1562 21.1841H64.5002" stroke="#00003E" stroke-width="1.5"/>
<path d="M55.1562 16.96H64.5002" stroke="#00003E" stroke-width="1.5"/>
<path d="M19.2539 16.96H45.6859" stroke="#00003E" stroke-width="1.5"/>
<path d="M0.5 46.9761H9.844" stroke="#00003E" stroke-width="1.5"/>
<path d="M18.9961 46.9761H45.8761" stroke="#00003E" stroke-width="1.5"/>
<path d="M0.5 42.752H9.844" stroke="#00003E" stroke-width="1.5"/>
<path d="M55.1562 46.9761H64.5002" stroke="#00003E" stroke-width="1.5"/>
<path d="M55.1562 42.752H64.5002" stroke="#00003E" stroke-width="1.5"/>
<path d="M19.2539 42.752H45.6859" stroke="#00003E" stroke-width="1.5"/>
<path d="M64.0547 16.96V26.176" stroke="#00003E" stroke-width="1.5"/>
<path d="M64.0547 37.7598V46.9758" stroke="#00003E" stroke-width="1.5"/>
<path d="M0.945312 16.96V26.176" stroke="#00003E" stroke-width="1.5"/>
<path d="M0.945312 37.7598V46.9758" stroke="#00003E" stroke-width="1.5"/>
</g>
<defs>
<clipPath id="clip0_194_74">
<rect width="64" height="64" fill="white" transform="translate(0.5)"/>
</clipPath>
</defs>
</svg>
