<svg width="64" height="64" viewBox="0 0 64 64" fill="none" xmlns="http://www.w3.org/2000/svg">
<g clip-path="url(#clip0_194_263)">
<path d="M5.376 0.96C5.568 0.96 5.696 1.088 5.696 1.28V62.72C5.696 62.912 5.568 63.04 5.376 63.04H1.28C1.088 63.04 0.96 62.912 0.96 62.72V1.28C0.96 1.088 1.088 0.96 1.28 0.96H5.376ZM5.376 0H1.28C0.576 0 0 0.576 0 1.28V62.72C0 63.424 0.576 64 1.28 64H5.376C6.08 64 6.656 63.424 6.656 62.72V1.28C6.656 0.576 6.08 0 5.376 0Z" fill="#00003E"/>
<path d="M62.7198 0.96C62.9118 0.96 63.0398 1.088 63.0398 1.28V62.72C63.0398 62.912 62.9118 63.04 62.7198 63.04H58.6237C58.4317 63.04 58.3037 62.912 58.3037 62.72V1.28C58.3037 1.088 58.4317 0.96 58.6237 0.96H62.7198ZM62.7198 0H58.6237C57.9197 0 57.3438 0.576 57.3438 1.28V62.72C57.3438 63.424 57.9197 64 58.6237 64H62.7198C63.4238 64 63.9998 63.424 63.9998 62.72V1.28C63.9998 0.576 63.4238 0 62.7198 0Z" fill="#00003E"/>
<path d="M6.01562 11.2642H57.3436" stroke="#00003E" stroke-width="1.5"/>
<path d="M6.01562 16.1279H57.3436" stroke="#00003E" stroke-width="1.5"/>
<path d="M6.01562 36.2881H57.3436" stroke="#00003E" stroke-width="1.5"/>
<path d="M6.01562 41.4082H57.3436" stroke="#00003E" stroke-width="1.5"/>
<path d="M6.01562 56.3838H57.3436" stroke="#00003E" stroke-width="1.5"/>
<path d="M6.01562 61.312H57.3436" stroke="#00003E" stroke-width="1.5"/>
<path d="M15.2327 46.3999V55.8719H12.0967V46.3999H15.2327ZM15.5527 45.4399H11.7767C11.3927 45.4399 11.1367 45.6959 11.1367 46.0799V56.1919C11.1367 56.5759 11.3927 56.8319 11.7767 56.8319H15.5527C15.9367 56.8319 16.1927 56.5759 16.1927 56.1919V46.0799C16.1927 45.6959 15.9367 45.4399 15.5527 45.4399Z" fill="#00003E"/>
<path d="M44.0958 50.6241V55.9361H27.1358V50.6241H44.0958ZM44.4158 49.6641H26.8158C26.4318 49.6641 26.1758 49.9201 26.1758 50.3041V56.2561C26.1758 56.6401 26.4318 56.8961 26.8158 56.8961H44.3518C44.7358 56.8961 44.9918 56.6401 44.9918 56.2561V50.3041C45.0558 49.9201 44.7358 49.6641 44.4158 49.6641Z" fill="#00003E"/>
<path d="M57.3439 21.6958V28.7358H47.2959V21.6958H57.3439ZM57.6639 20.7358H46.9759C46.5919 20.7358 46.3359 20.9918 46.3359 21.3758V29.0558C46.3359 29.4398 46.5919 29.6958 46.9759 29.6958H57.5999C57.9839 29.6958 58.2399 29.4398 58.2399 29.0558V21.3758C58.3039 21.0558 57.9839 20.7358 57.6639 20.7358Z" fill="#00003E"/>
<path d="M57.3434 29.6958V35.7758H41.9834V29.6958H57.3434ZM57.6634 28.7358H41.6634C41.2794 28.7358 41.0234 28.9918 41.0234 29.3758V36.0958C41.0234 36.4798 41.2794 36.7358 41.6634 36.7358H57.6634C58.0474 36.7358 58.3034 36.4798 58.3034 36.0958V29.3758C58.3034 29.0558 57.9834 28.7358 57.6634 28.7358Z" fill="#00003E"/>
<path d="M35.52 23.4878V35.8398H32.128V23.4878H35.52ZM35.84 22.5278H31.808C31.424 22.5278 31.168 22.7838 31.168 23.1678V36.1598C31.168 36.5438 31.424 36.7998 31.808 36.7998H35.84C36.224 36.7998 36.48 36.5438 36.48 36.1598V23.1678C36.48 22.7838 36.224 22.5278 35.84 22.5278Z" fill="#00003E"/>
<path d="M25.2775 27.2002V35.7762H22.3975V27.2002H25.2775ZM25.5975 26.2402H22.0775C21.6935 26.2402 21.4375 26.4962 21.4375 26.8802V36.0962C21.4375 36.4802 21.6935 36.7362 22.0775 36.7362H25.5975C25.9815 36.7362 26.2375 36.4802 26.2375 36.0962V26.8802C26.2375 26.5602 25.9815 26.2402 25.5975 26.2402Z" fill="#00003E"/>
<path d="M15.2327 22.5279V35.8399H12.0967V22.5279H15.2327ZM15.5527 21.5679H11.7767C11.3927 21.5679 11.1367 21.8239 11.1367 22.2079V36.1599C11.1367 36.5439 11.3927 36.7999 11.7767 36.7999H15.5527C15.9367 36.7999 16.1927 36.5439 16.1927 36.1599V22.2079C16.1927 21.8239 15.9367 21.5679 15.5527 21.5679Z" fill="#00003E"/>
<path d="M35.4567 2.17582V10.6878H12.1607V2.17582H35.4567ZM35.8407 1.21582H11.7767C11.3927 1.21582 11.1367 1.47182 11.1367 1.85582V11.0718C11.1367 11.4558 11.3927 11.7118 11.7767 11.7118H35.8407C36.2247 11.7118 36.4807 11.4558 36.4807 11.0718V1.85582C36.4807 1.47182 36.2247 1.21582 35.8407 1.21582Z" fill="#00003E"/>
<path d="M51.8394 2.17582V10.6878H48.3194V2.17582H51.8394ZM52.2234 1.21582H47.9994C47.6154 1.21582 47.3594 1.47182 47.3594 1.85582V11.0718C47.3594 11.4558 47.6154 11.7118 47.9994 11.7118H52.2234C52.6074 11.7118 52.8634 11.4558 52.8634 11.0718V1.85582C52.8634 1.47182 52.5434 1.21582 52.2234 1.21582Z" fill="#00003E"/>
<path d="M20.9922 6.27197H31.6802" stroke="#00003E" stroke-width="1.5"/>
<path d="M16.2575 6.59215C16.0655 6.59215 15.9375 6.46415 15.9375 6.27215C15.9375 6.08015 16.0655 5.95215 16.2575 5.95215C16.4495 5.95215 16.5775 6.08015 16.5775 6.27215C16.5775 6.40015 16.4495 6.59215 16.2575 6.59215Z" stroke="#00003E" stroke-width="1.5"/>
</g>
<defs>
<clipPath id="clip0_194_263">
<rect width="64" height="64" fill="white"/>
</clipPath>
</defs>
</svg>
