<svg width="65" height="64" viewBox="0 0 65 64" fill="none" xmlns="http://www.w3.org/2000/svg">
<g clip-path="url(#clip0_194_178)">
<path d="M63.092 45.2481C63.284 45.2481 63.476 45.4401 63.476 45.6321V53.3121C63.476 53.5041 63.284 53.6961 63.092 53.6961H1.908C1.716 53.6961 1.524 53.5041 1.524 53.3121V45.6321C1.524 45.4401 1.716 45.2481 1.908 45.2481H63.092ZM63.092 44.2241H1.908C1.14 44.2241 0.5 44.8641 0.5 45.6321V53.3121C0.5 54.0801 1.14 54.7201 1.908 54.7201H63.156C63.924 54.7201 64.564 54.0801 64.564 53.3121V45.6321C64.5 44.8641 63.86 44.2241 63.092 44.2241Z" fill="#00003E"/>
<path d="M19.7656 54.208V64" stroke="#00003E" stroke-width="1.5881" stroke-linejoin="round"/>
<path d="M16.6289 63.5518H22.9009" stroke="#00003E" stroke-width="1.5" stroke-linecap="round" stroke-linejoin="round"/>
<path d="M45.75 54.208V64" stroke="#00003E" stroke-width="1.5881" stroke-linejoin="round"/>
<path d="M42.6133 63.5522H48.8853" stroke="#00003E" stroke-width="1.5" stroke-linecap="round" stroke-linejoin="round"/>
<path d="M27.5724 0.96C28.0844 0.96 28.5324 1.408 28.5324 1.92V44.288H12.2764V1.92C12.2764 1.408 12.7244 0.96 13.2364 0.96H27.5724ZM27.5724 0H13.2364C12.1484 0 11.3164 0.832 11.3164 1.92V45.248H29.4924V1.92C29.4924 0.832 28.5964 0 27.5724 0Z" fill="#00003E"/>
<path d="M52.1466 0.96C52.6586 0.96 53.1066 1.408 53.1066 1.92V44.288H36.8506V1.92C36.8506 1.408 37.2986 0.96 37.8106 0.96H52.1466ZM52.1466 0H37.8106C36.7226 0 35.8906 0.832 35.8906 1.92V45.248H54.0666V1.92C54.0666 0.832 53.2346 0 52.1466 0Z" fill="#00003E"/>
<path d="M15.5404 46.208C17.3324 46.208 18.8044 47.6801 18.8044 49.4721C18.8044 51.2641 17.3324 52.736 15.5404 52.736C13.7484 52.736 12.2764 51.2641 12.2764 49.4721C12.2764 47.6801 13.7484 46.208 15.5404 46.208ZM15.5404 45.248C13.2364 45.248 11.3164 47.1041 11.3164 49.4721C11.3164 51.7761 13.1724 53.696 15.5404 53.696C17.9084 53.696 19.7644 51.8401 19.7644 49.4721C19.7644 47.1681 17.9084 45.248 15.5404 45.248Z" fill="#00003E"/>
<path d="M49.8451 46.208C51.6371 46.208 53.1091 47.6801 53.1091 49.4721C53.1091 51.2641 51.6371 52.736 49.8451 52.736C48.0531 52.736 46.5811 51.2641 46.5811 49.4721C46.5811 47.6801 48.0531 46.208 49.8451 46.208ZM49.8451 45.248C47.5411 45.248 45.6211 47.1041 45.6211 49.4721C45.6211 51.7761 47.4771 53.696 49.8451 53.696C52.1491 53.696 54.0691 51.8401 54.0691 49.4721C54.0691 47.1681 52.2131 45.248 49.8451 45.248Z" fill="#00003E"/>
<path d="M20.4031 22.9121C21.6191 22.9121 22.6431 23.9361 22.6431 25.1521C22.6431 26.3681 21.6191 27.3921 20.4031 27.3921C19.1871 27.3921 18.1631 26.3681 18.1631 25.1521C18.1631 23.9361 19.1231 22.9121 20.4031 22.9121ZM20.4031 21.9521C18.6111 21.9521 17.2031 23.3601 17.2031 25.1521C17.2031 26.9441 18.6111 28.3521 20.4031 28.3521C22.1951 28.3521 23.6031 26.9441 23.6031 25.1521C23.6031 23.3601 22.1311 21.9521 20.4031 21.9521Z" fill="#00003E"/>
<path d="M20.4031 10.8799C21.6191 10.8799 22.6431 11.9039 22.6431 13.1199C22.6431 14.3359 21.6191 15.3599 20.4031 15.3599C19.1871 15.3599 18.1631 14.3359 18.1631 13.1199C18.1631 11.9039 19.1231 10.8799 20.4031 10.8799ZM20.4031 9.91992C18.6111 9.91992 17.2031 11.3279 17.2031 13.1199C17.2031 14.9119 18.6111 16.3199 20.4031 16.3199C22.1951 16.3199 23.6031 14.9119 23.6031 13.1199C23.6031 11.3279 22.1311 9.91992 20.4031 9.91992Z" fill="#00003E"/>
<path d="M44.9812 22.8482C46.1972 22.8482 47.2213 23.8722 47.2213 25.0882C47.2213 26.3042 46.1972 27.3282 44.9812 27.3282C43.7652 27.3282 42.7412 26.3042 42.7412 25.0882C42.7412 23.8722 43.7652 22.8482 44.9812 22.8482ZM44.9812 21.8882C43.1892 21.8882 41.7812 23.2962 41.7812 25.0882C41.7812 26.8802 43.1892 28.2882 44.9812 28.2882C46.7732 28.2882 48.1812 26.8802 48.1812 25.0882C48.1812 23.2962 46.7732 21.8882 44.9812 21.8882Z" fill="#00003E"/>
<path d="M44.9812 10.816C46.1972 10.816 47.2213 11.84 47.2213 13.056C47.2213 14.272 46.1972 15.296 44.9812 15.296C43.7652 15.296 42.7412 14.272 42.7412 13.056C42.7412 11.84 43.7652 10.816 44.9812 10.816ZM44.9812 9.85596C43.1892 9.85596 41.7812 11.264 41.7812 13.056C41.7812 14.848 43.1892 16.256 44.9812 16.256C46.7732 16.256 48.1812 14.848 48.1812 13.056C48.1812 11.264 46.7732 9.85596 44.9812 9.85596Z" fill="#00003E"/>
<path d="M11.8281 37.5679H28.9161" stroke="#00003E" stroke-width="1.5" stroke-linejoin="round"/>
<path d="M36.4688 37.5679H53.5568" stroke="#00003E" stroke-width="1.5" stroke-linejoin="round"/>
</g>
<defs>
<clipPath id="clip0_194_178">
<rect width="64" height="64" fill="white" transform="translate(0.5)"/>
</clipPath>
</defs>
</svg>
