<svg width="24" height="41" viewBox="0 0 24 41" fill="none" xmlns="http://www.w3.org/2000/svg">
<path d="M22.8287 24.7569C22.3345 23.7763 21.6677 22.8821 20.8284 22.0741C19.989 21.2661 19.0163 20.5366 17.9024 19.8698C16.7964 19.2031 15.6118 18.5677 14.3646 17.9636C14.0665 17.8381 13.7998 17.7283 13.5174 17.6107V7.49139C13.7292 7.48355 13.9488 7.46001 14.1606 7.46001C17.3611 7.46001 20.091 8.67589 22.1227 10.033V4.30657C20.4126 3.51429 17.4788 2.87105 13.7292 2.87105C13.6586 2.87105 13.5958 2.87889 13.5252 2.87889V0H10.6542V3.12207C10.0972 3.20835 9.53245 3.2868 8.96765 3.41231C7.38308 3.77315 5.97109 4.33795 4.73168 5.08316C3.49227 5.83622 2.48819 6.7854 1.72728 7.93852C0.966374 9.09165 0.589844 10.4487 0.589844 12.0176C0.589844 13.2884 0.809487 14.3945 1.24877 15.3358C1.68806 16.2849 2.29992 17.1321 3.07651 17.8774C3.85311 18.6304 4.76306 19.3129 5.81421 19.9326C6.86535 20.5523 7.99495 21.1642 9.21082 21.7682C9.70502 21.98 10.1835 22.1839 10.6463 22.3879V32.6797C10.3875 32.6876 10.16 32.7111 9.88544 32.7111C9.1716 32.7111 8.38717 32.6405 7.53997 32.4993C6.69278 32.3581 5.83774 32.162 4.99055 31.9031C4.14335 31.6521 3.33538 31.3305 2.57447 30.9618C1.81357 30.5931 1.16248 30.1695 0.613377 29.7067V35.5586C1.11542 35.8567 1.78219 35.9587 2.59801 36.1862C3.41382 36.4215 4.27671 36.6176 5.1945 36.7823C6.11229 36.9471 7.00655 37.0647 7.87728 37.151C8.74801 37.2373 9.84622 37.2765 10.4424 37.2765C10.513 37.2765 10.5757 37.2687 10.6463 37.2687V40.1633H13.5174V37.0883C14.0665 37.0098 14.6235 36.9235 15.2118 36.8059C16.8277 36.4764 18.2554 35.9587 19.5027 35.2291C20.7421 34.4996 21.7305 33.5583 22.4678 32.3973C23.2052 31.2364 23.5661 29.8087 23.5661 28.1221C23.5661 26.867 23.3229 25.7453 22.8287 24.7569ZM8.81076 15.273C8.16752 14.8259 7.68117 14.3317 7.35171 13.7904C7.0144 13.2492 6.84967 12.6059 6.84967 11.8607C6.84967 11.0684 7.06931 10.4017 7.50075 9.84471C7.93219 9.28776 8.49699 8.83278 9.18729 8.47194C9.63442 8.24445 10.1365 8.07187 10.662 7.92283V16.3399C9.95604 15.9869 9.32065 15.6339 8.81076 15.273ZM15.4863 31.558C14.9608 31.8874 14.294 32.1385 13.5331 32.3267V23.6979C14.0665 23.9725 14.5607 24.247 15 24.5372C15.7295 25.0158 16.3022 25.5492 16.7101 26.1297C17.118 26.7101 17.3219 27.3926 17.3219 28.1849C17.3219 29.6596 16.7101 30.7814 15.4863 31.558Z" fill="white"/>
</svg>
