<svg width="17" height="29" viewBox="0 0 17 29" fill="none" xmlns="http://www.w3.org/2000/svg">
<path d="M16.027 17.5979C15.69 16.9292 15.2352 16.3193 14.6627 15.7682C14.0903 15.2171 13.4269 14.7196 12.6671 14.2648C11.9128 13.81 11.1049 13.3767 10.2542 12.9647C10.0509 12.8791 9.86901 12.8042 9.67641 12.724V5.82228C9.82086 5.81693 9.97067 5.80088 10.1151 5.80088C12.298 5.80088 14.1598 6.63015 15.5455 7.55572V3.65012C14.3792 3.10975 12.3782 2.67104 9.82086 2.67104C9.77271 2.67104 9.72991 2.67639 9.68176 2.67639V0.712891H7.72361V2.84225C7.34375 2.9011 6.95854 2.9546 6.57333 3.0402C5.4926 3.28631 4.52957 3.67152 3.68425 4.17978C2.83893 4.6934 2.15411 5.34076 1.63515 6.12723C1.11618 6.9137 0.859375 7.83928 0.859375 8.90931C0.859375 9.77603 1.00918 10.5304 1.30879 11.1724C1.60839 11.8198 2.02571 12.3976 2.55537 12.9059C3.08503 13.4195 3.70565 13.8849 4.42257 14.3076C5.13949 14.7303 5.90991 15.1476 6.73918 15.5595C7.07624 15.704 7.4026 15.8431 7.71826 15.9822V23.0016C7.5417 23.0069 7.38655 23.023 7.19929 23.023C6.71243 23.023 6.17742 22.9748 5.5996 22.8785C5.02179 22.7822 4.43862 22.6485 3.8608 22.4719C3.28299 22.3007 2.73192 22.0814 2.21296 21.8299C1.694 21.5784 1.24994 21.2895 0.875426 20.9739V24.9651C1.21783 25.1684 1.6726 25.2379 2.22901 25.3931C2.78543 25.5536 3.37394 25.6874 3.99991 25.7997C4.62587 25.9121 5.23579 25.9923 5.82966 26.0512C6.42352 26.11 7.17254 26.1368 7.57915 26.1368C7.6273 26.1368 7.6701 26.1314 7.71826 26.1314V28.1056H9.67641V26.0084C10.0509 25.9549 10.4308 25.896 10.832 25.8158C11.9342 25.5911 12.9079 25.2379 13.7586 24.7404C14.6039 24.2428 15.278 23.6008 15.7809 22.809C16.2838 22.0172 16.5299 21.0434 16.5299 19.8932C16.5299 19.0371 16.3641 18.2721 16.027 17.5979ZM6.46632 11.1296C6.02761 10.8247 5.6959 10.4876 5.4712 10.1184C5.24114 9.74928 5.12879 9.31057 5.12879 8.80231C5.12879 8.26194 5.27859 7.80718 5.57285 7.42732C5.86711 7.04746 6.25232 6.73715 6.72313 6.49104C7.02809 6.33589 7.3705 6.21819 7.72896 6.11653V11.8572C7.24744 11.6165 6.81408 11.3757 6.46632 11.1296ZM11.0193 22.2365C10.6608 22.4612 10.2061 22.6324 9.68711 22.7608V16.8757C10.0509 17.0629 10.388 17.2502 10.6876 17.4481C11.1851 17.7745 11.5757 18.1383 11.8539 18.5342C12.1321 18.9301 12.2712 19.3956 12.2712 19.9359C12.2712 20.9418 11.8539 21.7068 11.0193 22.2365Z" fill="#121212"/>
</svg>
