<svg width="64" height="64" viewBox="0 0 64 64" fill="none" xmlns="http://www.w3.org/2000/svg">
<g clip-path="url(#clip0_194_132)">
<path d="M33.5347 32.128C33.7267 32.128 33.9187 32.32 33.9187 32.512V62.592C33.9187 62.784 33.7267 62.976 33.5347 62.976H30.3987C30.2067 62.976 30.0147 62.784 30.0147 62.592V32.512C30.0147 32.32 30.2067 32.128 30.3987 32.128H33.5347ZM33.5347 31.168H30.3987C29.6307 31.168 29.0547 31.744 29.0547 32.512V62.592C29.0547 63.36 29.6307 63.936 30.3987 63.936H33.5347C34.3027 63.936 34.8787 63.36 34.8787 62.592V32.512C34.9427 31.808 34.3027 31.168 33.5347 31.168Z" fill="#00003E"/>
<path d="M36.097 10.8799C36.289 10.8799 36.417 11.0079 36.417 11.1999V24.7039C36.417 24.8959 36.289 25.0239 36.097 25.0239H27.905C27.713 25.0239 27.585 24.8959 27.585 24.7039V11.1999C27.585 11.0079 27.713 10.8799 27.905 10.8799H36.097ZM36.097 9.91992H27.905C27.201 9.91992 26.625 10.4959 26.625 11.1999V24.7039C26.625 25.4079 27.201 25.9839 27.905 25.9839H36.097C36.801 25.9839 37.377 25.4079 37.377 24.7039V11.1999C37.377 10.4959 36.801 9.91992 36.097 9.91992Z" fill="#00003E"/>
<path d="M35.1383 5.24809V9.92009H28.9303V5.24809H35.1383ZM35.3943 4.28809H28.6103C28.2263 4.28809 27.9062 4.60809 27.9062 4.99209V10.2401C27.9062 10.6241 28.2263 10.9441 28.6103 10.9441H35.3943C35.7783 10.9441 36.0983 10.6241 36.0983 10.2401V4.99209C36.0983 4.60809 35.7783 4.28809 35.3943 4.28809Z" fill="#00003E"/>
<path d="M35.1368 25.9839V28.6079C35.1368 30.0159 33.9848 31.1679 32.5768 31.1679H31.4887C30.0807 31.1679 28.9287 30.0159 28.9287 28.6079V25.9839H35.1368ZM35.3287 25.0239H28.6727C28.2887 25.0239 27.9688 25.3439 27.9688 25.7279V28.6079C27.9688 30.5279 29.5687 32.1279 31.4887 32.1279H32.5768C34.4968 32.1279 36.0968 30.5279 36.0968 28.6079V25.7279C36.0968 25.3439 35.7767 25.0239 35.3287 25.0239Z" fill="#00003E"/>
<path d="M32 4.54421V0.512207" stroke="#00003E" stroke-width="1.5" stroke-linecap="round" stroke-linejoin="round"/>
<path d="M9.472 10.8799C9.664 10.8799 9.792 11.0079 9.792 11.1999V24.7039C9.792 24.8959 9.664 25.0239 9.472 25.0239H1.28C1.088 25.0239 0.96 24.8959 0.96 24.7039V11.1999C0.96 11.0079 1.088 10.8799 1.28 10.8799H9.472ZM9.472 9.91992H1.28C0.576 9.91992 0 10.4959 0 11.1999V24.7039C0 25.4079 0.576 25.9839 1.28 25.9839H9.472C10.176 25.9839 10.752 25.4079 10.752 24.7039V11.1999C10.752 10.4959 10.176 9.91992 9.472 9.91992Z" fill="#00003E"/>
<path d="M8.44925 5.24809V9.92009H2.24125V5.24809H8.44925ZM8.76925 4.28809H1.98525C1.60125 4.28809 1.28125 4.60809 1.28125 4.99209V10.2401C1.28125 10.6241 1.60125 10.8801 1.98525 10.8801H8.76925C9.15325 10.8801 9.47325 10.5601 9.47325 10.1761V4.99209C9.40925 4.60809 9.15325 4.28809 8.76925 4.28809Z" fill="#00003E"/>
<path d="M8.44925 25.9844V28.6084C8.44925 30.0164 7.29725 31.1684 5.88925 31.1684H4.80125C3.39325 31.1684 2.24125 30.0164 2.24125 28.6084V25.9844H8.44925ZM8.70525 25.0244H1.98525C1.60125 25.0244 1.28125 25.3444 1.28125 25.7284V28.6084C1.28125 30.5284 2.88125 32.1284 4.80125 32.1284H5.88925C7.80925 32.1284 9.40925 30.5284 9.40925 28.6084V25.7284C9.40925 25.3444 9.08925 25.0244 8.70525 25.0244Z" fill="#00003E"/>
<path d="M5.375 4.54421V0.512207" stroke="#00003E" stroke-width="1.5" stroke-linecap="round" stroke-linejoin="round"/>
<path d="M3.45609 31.8722C3.90409 32.0642 4.54409 32.2562 5.31209 32.2562C5.82409 32.2562 6.33609 32.1922 6.84809 32.0642C6.91209 34.8162 8.00009 42.3042 16.0641 46.6562C23.8081 50.8162 27.5201 56.0642 27.8401 63.1042H24.5121C24.1281 55.2322 19.2001 51.8402 11.7761 47.4882C4.80009 43.4562 3.64809 35.1362 3.45609 31.8722ZM3.13609 30.7842C2.81609 30.7842 2.49609 30.9762 2.49609 31.2962C2.56009 34.4962 3.58409 43.8402 11.2641 48.3202C18.7521 52.6722 23.3601 55.9362 23.5521 63.3602C23.5521 63.6802 23.8721 64.0002 24.1921 64.0002H28.1601C28.5441 64.0002 28.8001 63.6802 28.8001 63.3602C28.6081 55.4882 24.3201 50.0482 16.5121 45.7602C8.57609 41.4722 7.80809 34.0482 7.74409 31.5522C7.74409 31.1682 7.55209 30.8482 7.23209 30.8482C7.16809 30.8482 7.10409 30.8482 7.04009 30.9122C6.40009 31.1682 5.76009 31.2962 5.24809 31.2962C4.41609 31.2962 3.84009 31.0402 3.39209 30.8482C3.39209 30.7842 3.26409 30.7842 3.13609 30.7842Z" fill="#00003E"/>
<path d="M62.722 10.8794C62.914 10.8794 63.042 11.0074 63.042 11.1994V24.7034C63.042 24.8954 62.914 25.0234 62.722 25.0234H54.53C54.338 25.0234 54.21 24.8954 54.21 24.7034V11.1994C54.21 11.0074 54.338 10.8794 54.53 10.8794H62.722ZM62.722 9.91943H54.53C53.826 9.91943 53.25 10.4954 53.25 11.1994V24.7034C53.25 25.4074 53.826 25.9834 54.53 25.9834H62.722C63.426 25.9834 64.002 25.4074 64.002 24.7034V11.1994C64.002 10.4954 63.426 9.91943 62.722 9.91943Z" fill="#00003E"/>
<path d="M61.7633 5.2476V9.9196H55.5553V5.2476H61.7633ZM62.0193 4.2876H55.2353C54.8513 4.2876 54.5312 4.6076 54.5312 4.9916V10.2396C54.5312 10.6236 54.8513 10.9436 55.2353 10.9436H62.0193C62.4033 10.9436 62.7233 10.6236 62.7233 10.2396V4.9916C62.7233 4.6076 62.4033 4.2876 62.0193 4.2876Z" fill="#00003E"/>
<path d="M61.7617 25.9834V28.6074C61.7617 30.0154 60.6097 31.1674 59.2017 31.1674H58.1138C56.7058 31.1674 55.5538 30.0154 55.5538 28.6074V25.9834H61.7617ZM62.0177 25.0234H55.2977C54.9137 25.0234 54.5938 25.3434 54.5938 25.7274V28.6074C54.5938 30.5274 56.1938 32.1274 58.1138 32.1274H59.2017C61.1217 32.1274 62.7217 30.5274 62.7217 28.6074V25.7274C62.7217 25.3434 62.4017 25.0234 62.0177 25.0234Z" fill="#00003E"/>
<path d="M58.625 4.54372V0.511719" stroke="#00003E" stroke-width="1.5" stroke-linecap="round" stroke-linejoin="round"/>
<path d="M60.5447 31.8717C60.3527 35.1997 59.2007 43.4557 52.2887 47.4877C44.8007 51.8397 39.8727 55.2317 39.4887 63.0397H36.1607C36.4807 55.9997 40.1927 50.8157 47.9367 46.5917C56.0007 42.2397 57.0887 34.7517 57.1527 31.9997C57.6647 32.1277 58.1767 32.1917 58.6887 32.1917C59.4567 32.1917 60.0967 31.9997 60.5447 31.8717ZM60.8647 30.7837C60.7367 30.7837 60.6087 30.7837 60.4807 30.8477C60.0327 31.0397 59.4567 31.2957 58.6247 31.2957C58.1127 31.2957 57.5367 31.1677 56.8327 30.9117C56.7687 30.9117 56.7047 30.8477 56.6407 30.8477C56.3207 30.8477 56.1287 31.2317 56.1287 31.5517C56.1287 34.0477 55.3607 41.4077 47.3607 45.7597C39.6167 50.0477 35.3927 55.4877 35.1367 63.3597C35.1367 63.7437 35.3927 63.9997 35.7767 63.9997H39.7447C40.0647 63.9997 40.3847 63.7437 40.3847 63.3597C40.6407 55.9357 45.1847 52.6717 52.6727 48.3197C60.4167 43.8397 61.3767 34.4957 61.4407 31.2317C61.5047 30.9117 61.1847 30.7837 60.8647 30.7837Z" fill="#00003E"/>
<path d="M24.5117 63.5518H39.6797" stroke="#00003E" stroke-width="1.5" stroke-linejoin="round"/>
</g>
<defs>
<clipPath id="clip0_194_132">
<rect width="64" height="64" fill="white"/>
</clipPath>
</defs>
</svg>
